<svg width="80" height="80" viewBox="0 0 80 80" fill="none" xmlns="http://www.w3.org/2000/svg">
<g clip-path="url(#clip0_16_221)">
<mask id="mask0_16_221" style="mask-type:luminance" maskUnits="userSpaceOnUse" x="12" y="38" width="13" height="11">
<path d="M12.8714 38.744H24.6299V48.896H12.8714V38.744Z" fill="white"/>
</mask>
<g mask="url(#mask0_16_221)">
<mask id="mask1_16_221" style="mask-type:luminance" maskUnits="userSpaceOnUse" x="7" y="20" width="30" height="34">
<path d="M7.29149 44.0309L20.5379 20.659L36.4549 30.2052L23.2093 53.5779L7.29149 44.0309Z" fill="white"/>
</mask>
<g mask="url(#mask1_16_221)">
<mask id="mask2_16_221" style="mask-type:luminance" maskUnits="userSpaceOnUse" x="7" y="20" width="30" height="34">
<path d="M7.29149 44.0309L20.5379 20.659L36.4549 30.2052L23.2093 53.5779L7.29149 44.0309Z" fill="white"/>
</mask>
<g mask="url(#mask2_16_221)">
<path d="M24.3412 46.3056C24.1452 46.6516 23.9024 46.8153 23.5472 46.9115L16.4434 48.836C15.7331 49.0284 15.0597 48.6251 14.8727 47.8944L13.0018 40.5867C12.8148 39.856 13.2068 39.1633 13.9171 38.9709C14.6275 38.7785 15.3008 39.1819 15.4879 39.9134L17.0315 45.942L22.8919 44.3532C23.6022 44.1608 24.2756 44.565 24.4626 45.2957C24.5561 45.661 24.538 45.9589 24.3412 46.3056Z" fill="white"/>
</g>
</g>
</g>
<mask id="mask3_16_221" style="mask-type:luminance" maskUnits="userSpaceOnUse" x="19" y="25" width="13" height="11">
<path d="M19.3806 25.3519H31.1391V35.504H19.3806V25.3519Z" fill="white"/>
</mask>
<g mask="url(#mask3_16_221)">
<mask id="mask4_16_221" style="mask-type:luminance" maskUnits="userSpaceOnUse" x="7" y="20" width="30" height="34">
<path d="M7.2915 44.0309L20.5379 20.659L36.4549 30.2052L23.2093 53.5779L7.2915 44.0309Z" fill="white"/>
</mask>
<g mask="url(#mask4_16_221)">
<mask id="mask5_16_221" style="mask-type:luminance" maskUnits="userSpaceOnUse" x="7" y="20" width="30" height="34">
<path d="M7.2915 44.0309L20.5379 20.659L36.4549 30.2052L23.2093 53.5779L7.2915 44.0309Z" fill="white"/>
</mask>
<g mask="url(#mask5_16_221)">
<path d="M30.8824 34.7648C30.6855 35.1108 30.4427 35.2745 30.0876 35.3706C29.3773 35.563 28.7039 35.1597 28.5169 34.429L26.9733 28.4004L21.1129 29.9884C20.4026 30.1807 19.7292 29.7766 19.5422 29.0459C19.3551 28.3152 19.7472 27.6233 20.4575 27.4309L27.5613 25.5055C28.2716 25.3131 28.945 25.7164 29.132 26.4471L31.0029 33.7549C31.0965 34.1202 31.0784 34.4189 30.8824 34.7648Z" fill="white"/>
</g>
</g>
</g>
<mask id="mask6_16_221" style="mask-type:luminance" maskUnits="userSpaceOnUse" x="15" y="29" width="14" height="16">
<path d="M15.1811 29.2399H28.8294V44.792H15.1811V29.2399Z" fill="white"/>
</mask>
<g mask="url(#mask6_16_221)">
<mask id="mask7_16_221" style="mask-type:luminance" maskUnits="userSpaceOnUse" x="7" y="20" width="30" height="34">
<path d="M7.2915 44.0309L20.5379 20.659L36.4549 30.2052L23.2093 53.5779L7.2915 44.0309Z" fill="white"/>
</mask>
<g mask="url(#mask7_16_221)">
<mask id="mask8_16_221" style="mask-type:luminance" maskUnits="userSpaceOnUse" x="7" y="20" width="30" height="34">
<path d="M7.2915 44.0309L20.5379 20.659L36.4549 30.2052L23.2093 53.5779L7.2915 44.0309Z" fill="white"/>
</mask>
<g mask="url(#mask8_16_221)">
<path d="M28.5472 44.1887C28.4816 44.3043 28.4168 44.4199 28.2388 44.468C27.6877 44.9101 26.9306 44.9202 26.3884 44.2857L15.542 31.5957C15.1122 31.0278 15.1024 30.2491 15.7192 29.6913C16.2703 29.2492 17.0274 29.2391 17.5704 29.8736L28.416 42.5636C28.7342 43.064 28.8089 43.7271 28.5472 44.1887Z" fill="white"/>
</g>
</g>
</g>
<mask id="mask9_16_221" style="mask-type:luminance" maskUnits="userSpaceOnUse" x="55" y="38" width="13" height="11">
<path d="M55.4961 38.744H67.2546V48.896H55.4961V38.744Z" fill="white"/>
</mask>
<g mask="url(#mask9_16_221)">
<mask id="mask10_16_221" style="mask-type:luminance" maskUnits="userSpaceOnUse" x="43" y="20" width="30" height="34">
<path d="M56.6189 53.5855L43.4808 30.1487L59.4421 20.6801L72.5802 44.117L56.6189 53.5855Z" fill="white"/>
</mask>
<g mask="url(#mask10_16_221)">
<mask id="mask11_16_221" style="mask-type:luminance" maskUnits="userSpaceOnUse" x="43" y="20" width="30" height="34">
<path d="M56.6189 53.5855L43.4808 30.1487L59.4421 20.6801L72.5802 44.117L56.6189 53.5855Z" fill="white"/>
</mask>
<g mask="url(#mask11_16_221)">
<path d="M67.0069 39.4932C67.2021 39.84 67.2193 40.1387 67.1242 40.5032L65.2188 47.8016C65.0285 48.5315 64.3535 48.9323 63.644 48.7357L56.5492 46.7765C55.8397 46.5799 55.4509 45.8863 55.6412 45.1565C55.8315 44.4266 56.5066 44.0258 57.216 44.2216L63.0691 45.8382L64.6406 39.8172C64.8317 39.0874 65.5059 38.6874 66.2154 38.8832C66.5705 38.9811 66.8125 39.1456 67.0069 39.4932Z" fill="white"/>
</g>
</g>
</g>
<mask id="mask12_16_221" style="mask-type:luminance" maskUnits="userSpaceOnUse" x="48" y="25" width="13" height="11">
<path d="M48.9869 25.1359H60.7454V35.288H48.9869V25.1359Z" fill="white"/>
</mask>
<g mask="url(#mask12_16_221)">
<mask id="mask13_16_221" style="mask-type:luminance" maskUnits="userSpaceOnUse" x="43" y="20" width="30" height="34">
<path d="M56.6189 53.5855L43.4808 30.1487L59.4421 20.6801L72.5802 44.117L56.6189 53.5855Z" fill="white"/>
</mask>
<g mask="url(#mask13_16_221)">
<mask id="mask14_16_221" style="mask-type:luminance" maskUnits="userSpaceOnUse" x="43" y="20" width="30" height="34">
<path d="M56.6189 53.5855L43.4808 30.1487L59.4421 20.6801L72.5802 44.117L56.6189 53.5855Z" fill="white"/>
</mask>
<g mask="url(#mask14_16_221)">
<path d="M60.5198 27.9212C60.7151 28.268 60.7323 28.5658 60.6371 28.9311C60.446 29.661 59.771 30.0609 59.0615 29.8652L53.2085 28.2486L51.637 34.2696C51.4467 34.9994 50.7717 35.4002 50.0622 35.2036C49.3527 35.0078 48.9639 34.3134 49.1542 33.5836L51.0587 26.2851C51.2498 25.5553 51.9249 25.1554 52.6344 25.3511L59.7283 27.3111C60.0835 27.409 60.3255 27.5736 60.5198 27.9212Z" fill="white"/>
</g>
</g>
</g>
<mask id="mask15_16_221" style="mask-type:luminance" maskUnits="userSpaceOnUse" x="48" y="33" width="20" height="8">
<path d="M48.5669 33.9919H67.4646V40.2559H48.5669V33.9919Z" fill="white"/>
</mask>
<g mask="url(#mask15_16_221)">
<mask id="mask16_16_221" style="mask-type:luminance" maskUnits="userSpaceOnUse" x="43" y="20" width="30" height="34">
<path d="M56.6189 53.5855L43.4808 30.1487L59.4421 20.6801L72.5802 44.1169L56.6189 53.5855Z" fill="white"/>
</mask>
<g mask="url(#mask16_16_221)">
<mask id="mask17_16_221" style="mask-type:luminance" maskUnits="userSpaceOnUse" x="43" y="20" width="30" height="34">
<path d="M56.6189 53.5855L43.4808 30.1487L59.4421 20.6801L72.5802 44.1169L56.6189 53.5855Z" fill="white"/>
</mask>
<g mask="url(#mask17_16_221)">
<path d="M67.3112 34.6863C67.376 34.8028 67.4408 34.9184 67.3932 35.1006C67.4925 35.8128 67.125 36.4937 66.3204 36.6624L50.2254 40.0416C49.5331 40.1437 48.872 39.7649 48.7072 38.9372C48.6079 38.225 48.9762 37.545 49.7808 37.3754L65.875 33.997C66.4549 33.9607 67.0512 34.224 67.3112 34.6863Z" fill="white"/>
</g>
</g>
</g>
<path d="M46.4623 63.7645C46.851 63.7645 47.1111 63.8987 47.3711 64.1653L52.5655 69.5088C53.0846 70.0437 53.0846 70.8453 52.5655 71.3794L47.3711 76.7229C46.851 77.257 46.0727 77.257 45.5527 76.7229C45.0335 76.1888 45.0335 75.3872 45.5527 74.8523L49.8383 70.4445L45.5527 66.0359C45.0335 65.5018 45.0335 64.7003 45.5527 64.1653C45.8127 63.8987 46.0727 63.7645 46.4623 63.7645Z" fill="white"/>
<path d="M33.4759 63.7645C33.8655 63.7645 34.1255 63.8987 34.3847 64.1653C34.9047 64.7003 34.9047 65.5018 34.3847 66.0359L30.0999 70.4445L34.3847 74.8523C34.9047 75.3872 34.9047 76.1888 34.3847 76.7229C33.8655 77.257 33.0863 77.257 32.5671 76.7229L27.3727 71.3794C26.8535 70.8453 26.8535 70.0437 27.3727 69.5088L32.5671 64.1653C32.8271 63.8987 33.0863 63.7645 33.4759 63.7645Z" fill="white"/>
<mask id="mask18_16_221" style="mask-type:luminance" maskUnits="userSpaceOnUse" x="35" y="61" width="9" height="19">
<path d="M35.9685 61.1084H43.9475V80H35.9685V61.1084Z" fill="white"/>
</mask>
<g mask="url(#mask18_16_221)">
<path d="M42.5663 61.0932C42.6959 61.0932 42.8255 61.0932 42.9559 61.2265C43.6047 61.494 43.9943 62.1623 43.7351 62.9638L38.5407 78.9934C38.2807 79.6617 37.6311 80.0624 36.8527 79.795C36.2031 79.5283 35.8135 78.8601 36.0735 78.0585L41.2679 62.0281C41.5271 61.494 42.0471 61.0932 42.5663 61.0932Z" fill="white"/>
</g>
<mask id="mask19_16_221" style="mask-type:luminance" maskUnits="userSpaceOnUse" x="0" y="67" width="7" height="8">
<path d="M0.058075 67.0881H6.82973V74.0541H0.058075V67.0881Z" fill="white"/>
</mask>
<g mask="url(#mask19_16_221)">
<path d="M6.84203 70.577C6.84203 70.6917 6.83711 70.8056 6.82563 70.9195C6.81497 71.0326 6.79856 71.1457 6.77724 71.2579C6.75509 71.3701 6.72802 71.4806 6.69603 71.5903C6.66405 71.6992 6.62632 71.8072 6.58367 71.9126C6.54184 72.0181 6.49426 72.121 6.44177 72.2223C6.38928 72.3227 6.33268 72.4206 6.27035 72.5159C6.20883 72.6104 6.14239 72.7024 6.07268 72.791C6.00214 72.8796 5.9275 72.964 5.84876 73.045C5.77002 73.1251 5.688 73.2019 5.60187 73.2745C5.51657 73.347 5.42717 73.4154 5.33449 73.4786C5.24262 73.5419 5.14748 73.601 5.04905 73.6541C4.95145 73.7081 4.85056 73.7571 4.74804 73.801C4.64551 73.8448 4.54134 73.8828 4.43472 73.9165C4.32891 73.9495 4.22064 73.9773 4.11237 73.9992C4.00329 74.022 3.89338 74.0389 3.78265 74.0499C3.67192 74.0608 3.56119 74.0667 3.45046 74.0667C3.33892 74.0667 3.22819 74.0608 3.11746 74.0499C3.00755 74.0389 2.89764 74.022 2.78855 73.9992C2.67947 73.9773 2.57202 73.9495 2.46539 73.9165C2.35958 73.8828 2.2546 73.8448 2.15207 73.801C2.04954 73.7571 1.94948 73.7081 1.85105 73.6541C1.75345 73.601 1.6583 73.5419 1.56562 73.4786C1.47376 73.4154 1.38435 73.347 1.29823 73.2745C1.21211 73.2019 1.13009 73.1251 1.05135 73.045C0.97343 72.964 0.89879 72.8796 0.828252 72.791C0.757714 72.7024 0.691277 72.6104 0.629761 72.5159C0.568246 72.4206 0.510831 72.3227 0.459158 72.2223C0.406664 72.121 0.359092 72.0181 0.316441 71.9126C0.27379 71.8072 0.236881 71.6992 0.204072 71.5903C0.172084 71.4806 0.145017 71.3701 0.123692 71.2579C0.101546 71.1457 0.0851418 71.0326 0.0744792 70.9195C0.0638163 70.8056 0.058075 70.6917 0.058075 70.577C0.058075 70.4631 0.0638163 70.3492 0.0744792 70.2353C0.0851418 70.1214 0.101546 70.0083 0.123692 69.8961C0.145017 69.7847 0.172084 69.6733 0.204072 69.5645C0.236881 69.4548 0.27379 69.3476 0.316441 69.2422C0.359092 69.1367 0.406664 69.0329 0.459158 68.9325C0.510831 68.8313 0.568246 68.7334 0.629761 68.6389C0.691277 68.5435 0.757714 68.4516 0.828252 68.3638C0.89879 68.2752 0.97343 68.1909 1.05135 68.1099C1.13009 68.0289 1.21211 67.9521 1.29823 67.8795C1.38435 67.8078 1.47376 67.7394 1.56562 67.6762C1.6583 67.612 1.75345 67.5538 1.85105 67.4998C1.94948 67.4458 2.04954 67.3969 2.15207 67.3539C2.2546 67.31 2.35958 67.2712 2.46539 67.2383C2.57202 67.2054 2.67947 67.1775 2.78855 67.1547C2.89764 67.1328 3.00755 67.1159 3.11746 67.1049C3.22819 67.0931 3.33892 67.0881 3.45046 67.0881C3.56119 67.0881 3.67192 67.0931 3.78265 67.1049C3.89338 67.1159 4.00329 67.1328 4.11237 67.1547C4.22064 67.1775 4.32891 67.2054 4.43472 67.2383C4.54134 67.2712 4.64551 67.31 4.74804 67.3539C4.85056 67.3969 4.95145 67.4458 5.04905 67.4998C5.14748 67.5538 5.24262 67.612 5.33449 67.6762C5.42717 67.7394 5.51657 67.8078 5.60187 67.8795C5.688 67.9521 5.77002 68.0289 5.84876 68.1099C5.9275 68.1909 6.00214 68.2752 6.07268 68.3638C6.14239 68.4516 6.20883 68.5435 6.27035 68.6389C6.33268 68.7334 6.38928 68.8313 6.44177 68.9325C6.49426 69.0329 6.54184 69.1367 6.58367 69.2422C6.62632 69.3476 6.66405 69.4548 6.69603 69.5645C6.72802 69.6733 6.75509 69.7847 6.77724 69.8961C6.79856 70.0083 6.81497 70.1214 6.82563 70.2353C6.83711 70.3492 6.84203 70.4631 6.84203 70.577Z" fill="white"/>
</g>
<mask id="mask20_16_221" style="mask-type:luminance" maskUnits="userSpaceOnUse" x="5" y="51" width="10" height="16">
<path d="M5.10236 51.488H14.5512V66.176H5.10236V51.488Z" fill="white"/>
</mask>
<g mask="url(#mask20_16_221)">
<mask id="mask21_16_221" style="mask-type:luminance" maskUnits="userSpaceOnUse" x="5" y="51" width="10" height="15">
<path d="M5.10481 64.6944L12.33 51.5892L14.5216 52.8684L7.29641 65.9727L5.10481 64.6944Z" fill="white"/>
</mask>
<g mask="url(#mask21_16_221)">
<mask id="mask22_16_221" style="mask-type:luminance" maskUnits="userSpaceOnUse" x="-3" y="44" width="22" height="37">
<path d="M-2.99394 79.3824L16.1965 44.5777L18.3881 45.8568L-0.802341 80.6615L-2.99394 79.3824Z" fill="white"/>
</mask>
<g mask="url(#mask22_16_221)">
<path d="M15.3853 46.0492L-2.1885 77.9219C-2.53545 78.5505 -2.32137 79.3495 -1.71031 79.7056C-1.09926 80.0625 -0.322519 79.8414 0.0244296 79.2128L17.5982 47.341C17.9444 46.7124 17.7303 45.9133 17.1192 45.5573C16.5082 45.2004 15.7315 45.4206 15.3853 46.0492Z" fill="white"/>
</g>
</g>
</g>
<mask id="mask23_16_221" style="mask-type:luminance" maskUnits="userSpaceOnUse" x="73" y="67" width="7" height="8">
<path d="M73.0723 67.0906H79.844V74.0566H73.0723V67.0906Z" fill="white"/>
</mask>
<g mask="url(#mask23_16_221)">
<path d="M79.8563 70.5804C79.8563 70.6943 79.8506 70.8082 79.8399 70.9221C79.8292 71.036 79.8128 71.149 79.7907 71.2604C79.7694 71.3726 79.7423 71.4832 79.7103 71.5929C79.6775 71.7025 79.6406 71.8097 79.5979 71.9152C79.5553 72.0206 79.5077 72.1244 79.456 72.2248C79.4035 72.3252 79.3461 72.424 79.2846 72.5185C79.2231 72.6138 79.1567 72.7049 79.0861 72.7935C79.0156 72.8821 78.9409 72.9665 78.863 73.0475C78.7843 73.1285 78.7023 73.2044 78.6161 73.277C78.53 73.3496 78.4414 73.4179 78.3488 73.4812C78.2561 73.5445 78.1609 73.6035 78.0633 73.6575C77.9649 73.7115 77.8648 73.7596 77.7623 73.8035C77.6598 73.8474 77.5548 73.8862 77.449 73.9191C77.3424 73.952 77.2349 73.9798 77.1258 74.0026C77.0167 74.0246 76.9068 74.0414 76.7969 74.0524C76.6862 74.0634 76.5755 74.0693 76.4639 74.0693C76.3532 74.0693 76.2425 74.0634 76.1317 74.0524C76.021 74.0414 75.9111 74.0246 75.8028 74.0026C75.6937 73.9798 75.5855 73.952 75.4797 73.9191C75.373 73.8862 75.2689 73.8474 75.1663 73.8035C75.0638 73.7596 74.9629 73.7115 74.8653 73.6575C74.7669 73.6035 74.6718 73.5445 74.5799 73.4812C74.4872 73.4179 74.3986 73.3496 74.3125 73.277C74.2264 73.2044 74.1444 73.1285 74.0656 73.0475C73.9869 72.9665 73.9122 72.8821 73.8425 72.7935C73.772 72.7049 73.7055 72.6138 73.644 72.5185C73.5825 72.424 73.5251 72.3252 73.4726 72.2248C73.4201 72.1244 73.3725 72.0206 73.3307 71.9152C73.2881 71.8097 73.2503 71.7025 73.2183 71.5929C73.1864 71.4832 73.1593 71.3726 73.1371 71.2604C73.1158 71.149 73.0994 71.036 73.0887 70.9221C73.0773 70.8082 73.0723 70.6943 73.0723 70.5804C73.0723 70.4656 73.0773 70.3517 73.0887 70.2378C73.0994 70.1239 73.1158 70.0117 73.1371 69.8995C73.1593 69.7872 73.1864 69.6767 73.2183 69.567C73.2503 69.4573 73.2881 69.3502 73.3307 69.2447C73.3725 69.1392 73.4201 69.0363 73.4726 68.935C73.5251 68.8346 73.5825 68.7368 73.644 68.6414C73.7055 68.5461 73.772 68.455 73.8425 68.3664C73.9122 68.2778 73.9869 68.1934 74.0656 68.1124C74.1444 68.0322 74.2264 67.9555 74.3125 67.8829C74.3986 67.8103 74.4872 67.742 74.5799 67.6787C74.6718 67.6154 74.7669 67.5564 74.8653 67.5024C74.9629 67.4492 75.0638 67.4003 75.1663 67.3564C75.2689 67.3125 75.373 67.2737 75.4797 67.2408C75.5855 67.2079 75.6937 67.18 75.8028 67.1581C75.9111 67.1353 76.021 67.1185 76.1317 67.1075C76.2425 67.0965 76.3532 67.0906 76.4639 67.0906C76.5755 67.0906 76.6862 67.0965 76.7969 67.1075C76.9068 67.1185 77.0167 67.1353 77.1258 67.1581C77.2349 67.18 77.3424 67.2079 77.449 67.2408C77.5548 67.2737 77.6598 67.3125 77.7623 67.3564C77.8648 67.4003 77.9649 67.4492 78.0633 67.5024C78.1609 67.5564 78.2561 67.6154 78.3488 67.6787C78.4414 67.742 78.53 67.8103 78.6161 67.8829C78.7023 67.9555 78.7843 68.0322 78.863 68.1124C78.9409 68.1934 79.0156 68.2778 79.0861 68.3664C79.1567 68.455 79.2231 68.5461 79.2846 68.6414C79.3461 68.7368 79.4035 68.8346 79.456 68.935C79.5077 69.0363 79.5553 69.1392 79.5979 69.2447C79.6406 69.3502 79.6775 69.4573 79.7103 69.567C79.7423 69.6767 79.7694 69.7872 79.7907 69.8995C79.8128 70.0117 79.8292 70.1239 79.8399 70.2378C79.8506 70.3517 79.8563 70.4656 79.8563 70.5804Z" fill="white"/>
</g>
<mask id="mask24_16_221" style="mask-type:luminance" maskUnits="userSpaceOnUse" x="36" y="0" width="8" height="8">
<path d="M36.915 0.100174H43.6867V7.06618H36.915V0.100174Z" fill="white"/>
</mask>
<g mask="url(#mask24_16_221)">
<path d="M43.699 3.58908C43.699 3.70383 43.6932 3.81774 43.6826 3.93165C43.6719 4.04471 43.6555 4.15777 43.6342 4.26999C43.612 4.38221 43.585 4.49274 43.553 4.60243C43.521 4.71127 43.4833 4.81927 43.4406 4.92474C43.398 5.03021 43.3512 5.13315 43.2987 5.2344C43.2462 5.3348 43.1888 5.43268 43.1273 5.52802C43.0658 5.62252 42.9993 5.71449 42.9288 5.80309C42.8583 5.89084 42.7844 5.97605 42.7057 6.05621C42.627 6.13721 42.5449 6.21399 42.4588 6.28656C42.3727 6.35912 42.2841 6.42662 42.1914 6.49074C42.0988 6.55402 42.0036 6.61224 41.906 6.66624C41.8084 6.72024 41.7075 6.76918 41.605 6.81306C41.5025 6.85693 41.3983 6.8949 41.2917 6.92865C41.185 6.96156 41.0776 6.9894 40.9685 7.01134C40.8602 7.03412 40.7503 7.05015 40.6396 7.06196C40.5289 7.07293 40.4181 7.07884 40.3074 7.07884C40.1959 7.07884 40.0851 7.07293 39.9744 7.06196C39.8637 7.05015 39.7546 7.03412 39.6455 7.01134C39.5364 6.9894 39.429 6.96156 39.3223 6.92865C39.2157 6.8949 39.1115 6.85693 39.009 6.81306C38.9065 6.76918 38.8064 6.72024 38.708 6.66624C38.6104 6.61224 38.5153 6.55402 38.4226 6.49074C38.3299 6.42662 38.2413 6.35912 38.1552 6.28656C38.0691 6.21399 37.987 6.13721 37.9083 6.05621C37.8304 5.97605 37.7557 5.89084 37.6852 5.80309C37.6147 5.71449 37.5482 5.62252 37.4867 5.52802C37.4252 5.43268 37.3678 5.3348 37.3153 5.2344C37.2636 5.13315 37.216 5.03021 37.1734 4.92474C37.1307 4.81927 37.093 4.71127 37.061 4.60243C37.029 4.49274 37.002 4.38221 36.9806 4.26999C36.9585 4.15777 36.9421 4.04471 36.9314 3.93165C36.9208 3.81774 36.915 3.70383 36.915 3.58908C36.915 3.47518 36.9208 3.36127 36.9314 3.24736C36.9421 3.13346 36.9585 3.0204 36.9806 2.90818C37.002 2.7968 37.029 2.68543 37.061 2.57658C37.093 2.46689 37.1307 2.35974 37.1734 2.25427C37.216 2.14796 37.2636 2.04502 37.3153 1.94461C37.3678 1.84336 37.4252 1.74549 37.4867 1.65099C37.5482 1.55564 37.6147 1.46368 37.6852 1.37593C37.7557 1.28733 37.8304 1.20296 37.9083 1.12196C37.987 1.04096 38.0691 0.964175 38.1552 0.891612C38.2413 0.81905 38.3299 0.75155 38.4226 0.688268C38.5153 0.624143 38.6104 0.565924 38.708 0.511924C38.8064 0.457924 38.9065 0.408987 39.009 0.365112C39.1115 0.322081 39.2157 0.283268 39.3223 0.250362C39.429 0.216612 39.5364 0.189611 39.6455 0.16683C39.7546 0.144893 39.8637 0.128018 39.9744 0.117049C40.0851 0.105237 40.1959 0.100174 40.3074 0.100174C40.4181 0.100174 40.5289 0.105237 40.6396 0.117049C40.7503 0.128018 40.8602 0.144893 40.9685 0.16683C41.0776 0.189611 41.185 0.216612 41.2917 0.250362C41.3983 0.283268 41.5025 0.322081 41.605 0.365112C41.7075 0.408987 41.8084 0.457924 41.906 0.511924C42.0036 0.565924 42.0988 0.624143 42.1914 0.688268C42.2841 0.75155 42.3727 0.81905 42.4588 0.891612C42.5449 0.964175 42.627 1.04096 42.7057 1.12196C42.7844 1.20296 42.8583 1.28733 42.9288 1.37593C42.9993 1.46368 43.0658 1.55564 43.1273 1.65099C43.1888 1.74549 43.2462 1.84336 43.2987 1.94461C43.3512 2.04502 43.398 2.14796 43.4406 2.25427C43.4833 2.35974 43.521 2.46689 43.553 2.57658C43.585 2.68543 43.612 2.7968 43.6342 2.90818C43.6555 3.0204 43.6719 3.13346 43.6826 3.24736C43.6932 3.36127 43.699 3.47518 43.699 3.58908Z" fill="white"/>
</g>
<mask id="mask25_16_221" style="mask-type:luminance" maskUnits="userSpaceOnUse" x="65" y="51" width="10" height="16">
<path d="M65.3648 51.488H74.8136V66.176H65.3648V51.488Z" fill="white"/>
</mask>
<g mask="url(#mask25_16_221)">
<mask id="mask26_16_221" style="mask-type:luminance" maskUnits="userSpaceOnUse" x="65" y="51" width="10" height="15">
<path d="M72.5847 65.9912L65.3661 52.8819L67.5577 51.6044L74.7771 64.7129L72.5847 65.9912Z" fill="white"/>
</mask>
<g mask="url(#mask26_16_221)">
<mask id="mask27_16_221" style="mask-type:luminance" maskUnits="userSpaceOnUse" x="61" y="44" width="22" height="37">
<path d="M80.6757 80.6843L61.5025 45.8686L63.6949 44.5912L82.8681 79.4068L80.6757 80.6843Z" fill="white"/>
</mask>
<g mask="url(#mask27_16_221)">
<path d="M62.3136 47.3409L79.8711 79.2229C80.2172 79.8515 80.9931 80.0726 81.605 79.7165C82.216 79.3604 82.4309 78.5614 82.0848 77.9328L64.5274 46.0508C64.1813 45.4214 63.4045 45.2012 62.7935 45.5573C62.1824 45.9133 61.9675 46.7115 62.3136 47.3409Z" fill="white"/>
</g>
</g>
</g>
<mask id="mask28_16_221" style="mask-type:luminance" maskUnits="userSpaceOnUse" x="29" y="8" width="11" height="16">
<path d="M29.8793 8.50392H39.3281V23.1919H29.8793V8.50392Z" fill="white"/>
</mask>
<g mask="url(#mask28_16_221)">
<mask id="mask29_16_221" style="mask-type:luminance" maskUnits="userSpaceOnUse" x="29" y="8" width="11" height="16">
<path d="M29.8924 21.7694L37.1184 8.66508L39.31 9.94337L32.084 23.0485L29.8924 21.7694Z" fill="white"/>
</mask>
<g mask="url(#mask29_16_221)">
<mask id="mask30_16_221" style="mask-type:luminance" maskUnits="userSpaceOnUse" x="21" y="1" width="23" height="37">
<path d="M21.7936 36.4582L40.9841 1.65266L43.1757 2.93179L23.9852 37.7374L21.7936 36.4582Z" fill="white"/>
</mask>
<g mask="url(#mask30_16_221)">
<path d="M40.1729 3.12501L22.5991 34.9968C22.2521 35.6263 22.467 36.4245 23.0781 36.7814C23.6891 37.1374 24.4651 36.9172 24.812 36.2886L42.3858 4.41594C42.7328 3.78735 42.5179 2.98916 41.9068 2.63225C41.2958 2.27535 40.519 2.49641 40.1729 3.12501Z" fill="white"/>
</g>
</g>
</g>
<mask id="mask31_16_221" style="mask-type:luminance" maskUnits="userSpaceOnUse" x="41" y="8" width="10" height="16">
<path d="M41.2178 8.50392H50.8766V23.1919H41.2178V8.50392Z" fill="white"/>
</mask>
<g mask="url(#mask31_16_221)">
<mask id="mask32_16_221" style="mask-type:luminance" maskUnits="userSpaceOnUse" x="41" y="8" width="10" height="16">
<path d="M48.6186 23.0637L41.3999 9.95518L43.5924 8.6769L50.811 21.7863L48.6186 23.0637Z" fill="white"/>
</mask>
<g mask="url(#mask32_16_221)">
<mask id="mask33_16_221" style="mask-type:luminance" maskUnits="userSpaceOnUse" x="37" y="1" width="22" height="37">
<path d="M56.71 37.7568L37.5376 2.94107L39.73 1.66364L58.9024 36.4793L56.71 37.7568Z" fill="white"/>
</mask>
<g mask="url(#mask33_16_221)">
<path d="M38.3479 4.41342L55.9053 36.2954C56.2515 36.924 57.0282 37.1451 57.6393 36.789C58.2503 36.4329 58.4652 35.6339 58.1191 35.0053L40.5617 3.12333C40.2156 2.49473 39.4396 2.27367 38.8278 2.62973C38.2167 2.9858 38.0018 3.78483 38.3479 4.41342Z" fill="white"/>
</g>
</g>
</g>
<mask id="mask34_16_221" style="mask-type:luminance" maskUnits="userSpaceOnUse" x="8" y="69" width="16" height="3">
<path d="M8.89337 69.2692H23.539V71.8612H8.89337V69.2692Z" fill="white"/>
</mask>
<g mask="url(#mask34_16_221)">
<path d="M29.7308 69.2692H-5.88928C-6.5922 69.2692 -7.16142 69.8547 -7.16142 70.5778C-7.16142 71.3001 -6.5922 71.8865 -5.88928 71.8865H29.7308C30.4329 71.8865 31.0029 71.3001 31.0029 70.5778C31.0029 69.8547 30.4329 69.2692 29.7308 69.2692Z" fill="white"/>
</g>
<mask id="mask35_16_221" style="mask-type:luminance" maskUnits="userSpaceOnUse" x="56" y="69" width="16" height="3">
<path d="M56.3794 69.2717H71.0251V71.8637H56.3794V69.2717Z" fill="white"/>
</mask>
<g mask="url(#mask35_16_221)">
<path d="M77.216 69.2717H41.596C40.8939 69.2717 40.3238 69.8573 40.3238 70.5804C40.3238 71.3026 40.8939 71.889 41.596 71.889H77.216C77.919 71.889 78.4882 71.3026 78.4882 70.5804C78.4882 69.8573 77.919 69.2717 77.216 69.2717Z" fill="white"/>
</g>
<mask id="mask36_16_221" style="mask-type:luminance" maskUnits="userSpaceOnUse" x="38" y="1" width="5" height="5">
<path d="M38.6112 1.84505H42.0758V5.40905H38.6112V1.84505Z" fill="white"/>
</mask>
<g mask="url(#mask36_16_221)">
<path d="M42.0758 3.62705C42.0758 3.74433 42.0651 3.85992 42.043 3.97467C42.0208 4.08942 41.988 4.2008 41.9446 4.3088C41.9003 4.4168 41.8469 4.51974 41.7838 4.61677C41.7206 4.71464 41.6493 4.80408 41.5689 4.88677C41.4885 4.96946 41.4008 5.04371 41.3064 5.10868C41.2113 5.17364 41.112 5.22849 41.0071 5.27321C40.9012 5.31793 40.793 5.35168 40.6814 5.37446C40.5699 5.39724 40.4575 5.40905 40.3435 5.40905C40.2303 5.40905 40.1171 5.39724 40.0056 5.37446C39.894 5.35168 39.7858 5.31793 39.6808 5.27321C39.5758 5.22849 39.4757 5.17364 39.3814 5.10868C39.2871 5.04371 39.1993 4.96946 39.1189 4.88677C39.0386 4.80408 38.9664 4.71464 38.9032 4.61677C38.8401 4.51974 38.7867 4.4168 38.7433 4.3088C38.6998 4.2008 38.667 4.08942 38.6448 3.97467C38.6227 3.85992 38.6112 3.74433 38.6112 3.62705C38.6112 3.50977 38.6227 3.39417 38.6448 3.27942C38.667 3.16467 38.6998 3.0533 38.7433 2.9453C38.7867 2.8373 38.8401 2.73436 38.9032 2.63733C38.9664 2.53945 39.0386 2.45002 39.1189 2.36649C39.1993 2.2838 39.2871 2.21039 39.3814 2.14542C39.4757 2.08045 39.5758 2.02561 39.6808 1.98089C39.7858 1.93617 39.894 1.90242 40.0056 1.8788C40.1171 1.85602 40.2303 1.84505 40.3435 1.84505C40.4575 1.84505 40.5699 1.85602 40.6814 1.8788C40.793 1.90242 40.9012 1.93617 41.0071 1.98089C41.112 2.02561 41.2113 2.08045 41.3064 2.14542C41.4008 2.21039 41.4885 2.2838 41.5689 2.36649C41.6493 2.45002 41.7206 2.53945 41.7838 2.63733C41.8469 2.73436 41.9003 2.8373 41.9446 2.9453C41.988 3.0533 42.0208 3.16467 42.043 3.27942C42.0651 3.39417 42.0758 3.50977 42.0758 3.62705Z" fill="black"/>
</g>
<mask id="mask37_16_221" style="mask-type:luminance" maskUnits="userSpaceOnUse" x="1" y="68" width="5" height="5">
<path d="M1.75426 68.833H5.21882V72.397H1.75426V68.833Z" fill="white"/>
</mask>
<g mask="url(#mask37_16_221)">
<path d="M5.145 70.577C5.145 70.6917 5.13434 70.8048 5.11302 70.917C5.09087 71.0292 5.05888 71.1389 5.01623 71.2444C4.97358 71.3499 4.92191 71.4511 4.85957 71.5456C4.79806 71.641 4.72752 71.7296 4.64878 71.8106C4.57004 71.8916 4.48474 71.9633 4.39205 72.0274C4.29937 72.0907 4.20176 72.1447 4.09842 72.1886C3.99589 72.2324 3.89008 72.2653 3.781 72.2873C3.67191 72.3101 3.56118 72.321 3.44963 72.321C3.3389 72.321 3.22817 72.3101 3.11909 72.2873C3.01 72.2653 2.90419 72.2324 2.80085 72.1886C2.69832 72.1447 2.60071 72.0907 2.50803 72.0274C2.41535 71.9633 2.33004 71.8916 2.2513 71.8106C2.17256 71.7296 2.10203 71.641 2.04051 71.5456C1.97817 71.4511 1.9265 71.3499 1.88385 71.2444C1.8412 71.1389 1.80921 71.0292 1.78707 70.917C1.76574 70.8048 1.75426 70.6917 1.75426 70.577C1.75426 70.4622 1.76574 70.3492 1.78707 70.237C1.80921 70.1247 1.8412 70.0151 1.88385 69.9096C1.9265 69.8041 1.97817 69.7037 2.04051 69.6084C2.10203 69.513 2.17256 69.4244 2.2513 69.3434C2.33004 69.2624 2.41535 69.1907 2.50803 69.1266C2.60071 69.0633 2.69832 69.0093 2.80085 68.9654C2.90419 68.9216 3.01 68.8886 3.11909 68.8667C3.22817 68.8439 3.3389 68.833 3.44963 68.833C3.56118 68.833 3.67191 68.8439 3.781 68.8667C3.89008 68.8886 3.99589 68.9216 4.09842 68.9654C4.20176 69.0093 4.29937 69.0633 4.39205 69.1266C4.48474 69.1907 4.57004 69.2624 4.64878 69.3434C4.72752 69.4244 4.79806 69.513 4.85957 69.6084C4.92191 69.7037 4.97358 69.8041 5.01623 69.9096C5.05888 70.0151 5.09087 70.1247 5.11302 70.237C5.13434 70.3492 5.145 70.4622 5.145 70.577Z" fill="#343434"/>
</g>
<mask id="mask38_16_221" style="mask-type:luminance" maskUnits="userSpaceOnUse" x="74" y="68" width="5" height="5">
<path d="M74.7685 68.833H78.1732V72.397H74.7685V68.833Z" fill="white"/>
</mask>
<g mask="url(#mask38_16_221)">
<path d="M78.1593 70.577C78.1593 70.6917 78.1486 70.8048 78.1265 70.917C78.1052 71.0292 78.0732 71.1389 78.0305 71.2444C77.9879 71.3499 77.9354 71.4511 77.8739 71.5456C77.8115 71.641 77.7418 71.7296 77.6631 71.8106C77.5843 71.8916 77.4982 71.9633 77.4055 72.0274C77.3137 72.0907 77.2152 72.1447 77.1127 72.1886C77.0102 72.2324 76.9035 72.2653 76.7945 72.2873C76.6854 72.3101 76.5755 72.321 76.4639 72.321C76.3524 72.321 76.2425 72.3101 76.1334 72.2873C76.0243 72.2653 75.9177 72.2324 75.8151 72.1886C75.7126 72.1447 75.615 72.0907 75.5223 72.0274C75.4296 71.9633 75.3435 71.8916 75.2648 71.8106C75.1868 71.7296 75.1163 71.641 75.054 71.5456C74.9925 71.4511 74.94 71.3499 74.8973 71.2444C74.8547 71.1389 74.8227 71.0292 74.8013 70.917C74.7792 70.8048 74.7685 70.6917 74.7685 70.577C74.7685 70.4622 74.7792 70.3492 74.8013 70.237C74.8227 70.1247 74.8547 70.0151 74.8973 69.9096C74.94 69.8041 74.9925 69.7037 75.054 69.6084C75.1163 69.513 75.1868 69.4244 75.2648 69.3434C75.3435 69.2624 75.4296 69.1907 75.5223 69.1266C75.615 69.0633 75.7126 69.0093 75.8151 68.9654C75.9177 68.9216 76.0243 68.8886 76.1334 68.8667C76.2425 68.8439 76.3524 68.833 76.4639 68.833C76.5755 68.833 76.6854 68.8439 76.7945 68.8667C76.9035 68.8886 77.0102 68.9216 77.1127 68.9654C77.2152 69.0093 77.3137 69.0633 77.4055 69.1266C77.4982 69.1907 77.5843 69.2624 77.6631 69.3434C77.7418 69.4244 77.8115 69.513 77.8739 69.6084C77.9354 69.7037 77.9879 69.8041 78.0305 69.9096C78.0732 70.0151 78.1052 70.1247 78.1265 70.237C78.1486 70.3492 78.1593 70.4622 78.1593 70.577Z" fill="#343434"/>
</g>
<mask id="mask39_16_221" style="mask-type:luminance" maskUnits="userSpaceOnUse" x="25" y="41" width="15" height="17">
<path d="M25.6798 41.552H39.958V57.752H25.6798V41.552Z" fill="white"/>
</mask>
<g mask="url(#mask39_16_221)">
<mask id="mask40_16_221" style="mask-type:luminance" maskUnits="userSpaceOnUse" x="25" y="41" width="17" height="19">
<path d="M27.7943 41.5908L41.24 57.2575L39.2329 59.08L25.7872 43.4141L27.7943 41.5908Z" fill="white"/>
</mask>
<g mask="url(#mask40_16_221)">
<mask id="mask41_16_221" style="mask-type:luminance" maskUnits="userSpaceOnUse" x="-71" y="-71" width="113" height="131">
<path d="M-68.3351 -70.4155L41.208 57.2196L39.201 59.0429L-70.3422 -68.593L-68.3351 -70.4155Z" fill="white"/>
</mask>
<g mask="url(#mask41_16_221)">
<path d="M39.4281 57.2364C38.872 57.7419 38.0215 57.6879 37.5302 57.1149L-68.646 -66.5975C-69.1373 -67.1696 -69.0848 -68.0445 -68.5279 -68.5499C-67.9718 -69.0553 -67.1212 -69.0005 -66.6299 -68.4284L39.5462 55.284C40.0376 55.8569 39.9851 56.731 39.4281 57.2364Z" fill="white"/>
</g>
</g>
</g>
<mask id="mask42_16_221" style="mask-type:luminance" maskUnits="userSpaceOnUse" x="40" y="43" width="10" height="21">
<path d="M40.7979 43.064H49.4068V63.368H40.7979V43.064Z" fill="white"/>
</mask>
<g mask="url(#mask42_16_221)">
<mask id="mask43_16_221" style="mask-type:luminance" maskUnits="userSpaceOnUse" x="40" y="41" width="10" height="23">
<path d="M40.9258 62.493L47.4137 41.6659L49.9629 42.5062L43.4759 63.3334L40.9258 62.493Z" fill="white"/>
</mask>
<g mask="url(#mask43_16_221)">
<mask id="mask44_16_221" style="mask-type:luminance" maskUnits="userSpaceOnUse" x="-4" y="41" width="54" height="164">
<path d="M-3.08743 203.797L47.417 41.6549L49.9662 42.4953L-0.53822 204.637L-3.08743 203.797Z" fill="white"/>
</mask>
<g mask="url(#mask44_16_221)">
<path d="M48.3422 43.2192C49.0492 43.4521 49.4388 44.2309 49.2124 44.9582L0.259834 202.117C0.0334556 202.844 -0.723598 203.245 -1.43062 203.012C-2.13846 202.779 -2.52806 202 -2.30086 201.272L46.6509 44.1144C46.8773 43.3871 47.6343 42.9863 48.3422 43.2192Z" fill="white"/>
</g>
</g>
</g>
<mask id="mask45_16_221" style="mask-type:luminance" maskUnits="userSpaceOnUse" x="31" y="36" width="22" height="8">
<path d="M31.769 36.584H52.1365V43.496H31.769V36.584Z" fill="white"/>
</mask>
<g mask="url(#mask45_16_221)">
<mask id="mask46_16_221" style="mask-type:luminance" maskUnits="userSpaceOnUse" x="30" y="36" width="22" height="8">
<path d="M51.9733 39.4907L31.1424 43.8588L30.6076 41.1605L51.4385 36.7924L51.9733 39.4907Z" fill="white"/>
</mask>
<g mask="url(#mask46_16_221)">
<mask id="mask47_16_221" style="mask-type:luminance" maskUnits="userSpaceOnUse" x="30" y="7" width="164" height="37">
<path d="M193.308 9.85476L31.1309 43.8613L30.5961 41.163L192.773 7.15645L193.308 9.85476Z" fill="white"/>
</mask>
<g mask="url(#mask47_16_221)">
<path d="M32.0044 42.2666C31.856 41.5182 32.326 40.7875 33.0535 40.6348L190.246 7.67367C190.973 7.52095 191.684 8.00442 191.832 8.75282C191.981 9.50123 191.511 10.2319 190.783 10.3846L33.5907 43.3458C32.8632 43.4985 32.1529 43.015 32.0044 42.2666Z" fill="white"/>
</g>
</g>
</g>
</g>
<defs>
<clipPath id="clip0_16_221">
<rect width="80" height="80" fill="white"/>
</clipPath>
</defs>
</svg>
